<svg width="176" height="74" viewBox="0 0 176 74" fill="none" xmlns="http://www.w3.org/2000/svg">
<path d="M170.157 73.1377C170.157 73.0836 170.546 72.08 170.75 71.6055C170.867 71.3348 171.102 70.8152 171.272 70.4508L171.581 69.7882L171.337 69.2367C171.203 68.9334 170.614 67.5779 170.028 66.2244C169.028 63.914 168.264 62.1755 168.162 61.9747L168.117 61.8866L168.431 61.8655C168.604 61.8539 168.808 61.8444 168.884 61.8443H169.021L169.325 62.4595C169.721 63.2594 170.185 64.3088 170.854 65.9129C171.151 66.6257 171.541 67.5534 171.721 67.9745L172.049 68.74L172.095 68.6307C172.12 68.5706 172.277 68.1818 172.443 67.7667C172.956 66.4864 173.258 65.7741 174.708 62.4103L174.938 61.8771H175.385H175.833L175.805 61.9509C175.778 62.021 173.652 66.9781 172.825 68.8987C172.004 70.8055 171.283 72.4636 171.227 72.5758C171.099 72.8288 170.787 73.0385 170.421 73.1169C170.167 73.1713 170.157 73.172 170.157 73.1377ZM87.9659 70.3201C87.7757 70.296 87.2233 70.1721 87.0123 70.1062C86.8086 70.0426 86.7771 70.0178 86.3734 69.6039C85.7012 68.9147 85.7204 68.9448 85.6141 68.4128C85.4039 67.3611 85.3823 66.8009 85.4193 63.3781L85.4355 61.877H85.9627H86.4899L86.4928 64.4281C86.4945 65.8312 86.5056 67.2671 86.5176 67.619L86.5396 68.2588L86.6601 68.515C86.9371 69.1041 87.5145 69.4565 88.2905 69.5101C88.6324 69.5337 88.9622 69.4887 89.3104 69.371C89.726 69.2304 90.5234 68.6442 90.9072 68.1973L91.0445 68.0373L91.0682 67.5411C91.0812 67.2681 91.093 65.882 91.0943 64.4609L91.0967 61.8769H91.5023H91.9078V66.0111V70.1454L91.8348 70.1445C91.7139 70.1436 91.1561 70.052 91.1337 70.0295C91.1223 70.0179 91.1057 69.7629 91.0967 69.4628L91.0805 68.917L90.7885 69.1802C90.2556 69.6604 89.8255 69.9565 89.507 70.0625C89.4089 70.0952 89.1996 70.1714 89.042 70.2319C88.7767 70.3337 88.7294 70.3416 88.4093 70.337C88.2191 70.3343 88.0195 70.3269 87.9659 70.3201ZM131.098 70.2848C131.036 70.2532 130.952 70.1772 130.911 70.1159L130.838 70.0044V65.9407V61.8769H131.373H131.909L131.901 65.9757L131.892 70.0745L131.811 70.1634C131.647 70.3429 131.322 70.3984 131.098 70.2848ZM154.103 70.2595C153.496 70.0739 153.082 69.8349 152.684 69.4402L152.451 69.2103L152.407 68.9314C152.35 68.572 152.35 67.8536 152.409 67.6189C152.554 67.0202 152.895 66.638 153.608 66.2744C154.123 66.0115 154.74 65.8477 155.706 65.7169C157.042 65.536 157.413 65.4826 157.46 65.4645C157.504 65.4475 157.508 65.3921 157.49 65.0635C157.429 63.905 157.286 63.385 156.918 62.9769C156.631 62.6597 156.08 62.4347 155.59 62.4347C155.024 62.4347 154.422 62.6775 153.591 63.2408L153.099 63.5749L152.887 63.3101C152.644 63.0069 152.638 63.0458 152.98 62.7649C153.986 61.9383 155.079 61.597 156.201 61.7585C156.402 61.7875 156.65 61.8405 156.751 61.8764C157.32 62.0789 157.829 62.6057 158.089 63.262C158.213 63.5747 158.242 63.7123 158.326 64.386C158.393 64.915 158.397 65.0852 158.401 67.5817L158.405 70.2185L158.264 70.199C157.841 70.1404 157.606 69.8327 157.578 69.3005C157.57 69.1516 157.552 69.0298 157.539 69.0298C157.526 69.0298 157.418 69.1098 157.3 69.2076C156.723 69.6864 155.933 70.0575 155.105 70.2387C154.591 70.3512 154.416 70.3548 154.104 70.2595H154.103ZM155.591 69.4401C155.962 69.3419 156.373 69.1634 156.619 68.9939C156.851 68.8334 157.171 68.5141 157.319 68.2945L157.45 68.1006L157.466 67.1653L157.482 66.2301L156.853 66.2516C155.149 66.3097 154.248 66.576 153.625 67.2059C153.418 67.415 153.333 67.5316 153.223 67.7559C153.057 68.0967 153.06 68.1361 153.276 68.5724C153.439 68.9025 153.629 69.162 153.883 69.4003L154.05 69.5575L154.65 69.5438C155.173 69.5319 155.294 69.5185 155.591 69.4401ZM35.7366 70.2083C35.5592 70.1742 35.3621 70.1296 35.2986 70.1091C35.0497 70.0287 34.7298 69.8293 34.4969 69.6094C33.974 69.1155 33.73 68.5837 33.674 67.8158C33.6575 67.5902 33.6436 66.1617 33.6431 64.6413L33.6422 61.8769H34.0659H34.4895L34.4674 64.0343C34.4449 66.2266 34.4644 66.9653 34.5665 67.801C34.5909 68.0004 34.6398 68.2408 34.6753 68.3352C34.9158 68.9754 35.5607 69.4526 36.3025 69.5392C36.5495 69.5681 37.0992 69.5013 37.3636 69.4104C37.8333 69.2487 38.1633 69.0263 38.7761 68.4581L39.1898 68.0745V64.9757V61.8769H39.6279H40.0659L40.0577 66.052L40.0495 70.2272L39.9204 70.2159C39.5546 70.184 39.3547 69.9376 39.2025 69.3308C39.1594 69.1588 39.1173 69.0112 39.1091 69.0029C39.1009 68.9946 39.0006 69.0764 38.8861 69.1847C38.6593 69.3993 38.1808 69.7356 37.8944 69.8816C37.6166 70.0233 37.167 70.1741 36.8618 70.228C36.5024 70.2914 36.1361 70.2849 35.7366 70.2083ZM97.1516 70.2426C96.6421 70.1844 96.0866 70.0071 95.6193 69.7536C95.4022 69.6358 94.9247 69.3047 94.9247 69.2719C94.9247 69.2256 95.4273 68.6749 95.4541 68.6917C95.4718 68.7028 95.5916 68.7883 95.7204 68.8817C96.0228 69.1012 96.4586 69.3269 96.8063 69.4441C97.0686 69.5325 97.1092 69.5368 97.6368 69.5333C98.0544 69.5305 98.2384 69.5157 98.3816 69.4736C98.7956 69.3519 99.1239 69.1143 99.3722 68.7567C99.5739 68.4663 99.6651 68.1813 99.6658 67.8397C99.6675 67.5248 99.5993 67.3686 99.3424 67.088C99.0067 66.7213 98.6187 66.506 97.8769 66.2749C96.5041 65.8471 96.2136 65.7287 95.8432 65.4458C95.3528 65.0713 95.0858 64.5056 95.1343 63.944C95.1708 63.5209 95.4661 62.7781 95.7182 62.475C95.817 62.3563 96.418 62.0421 96.7577 61.9315C97.5222 61.6827 98.4244 61.679 99.1295 61.9219C99.6155 62.0893 100.107 62.3835 100.21 62.5681C100.34 62.8022 100.287 62.9432 100.057 62.9751C99.832 63.0065 99.5298 62.9254 99.0703 62.7103C98.6128 62.4962 98.4707 62.4422 98.253 62.3998C98.0253 62.3555 97.4409 62.4172 97.1794 62.5132C96.6961 62.6906 96.306 63.0255 96.1061 63.4346C96.003 63.6455 95.9877 63.7077 95.9863 63.9204C95.9846 64.1255 96.0005 64.1981 96.0837 64.3779C96.167 64.5581 96.2155 64.6154 96.3928 64.7433C96.7293 64.9862 97.222 65.2049 98.0391 65.4739C99.1542 65.8411 99.5885 66.0464 99.9292 66.3674C100.124 66.5505 100.236 66.7496 100.424 67.2414L100.573 67.631L100.423 68.2566C100.341 68.6006 100.256 68.9178 100.235 68.9613C100.156 69.1229 99.7428 69.5285 99.4665 69.7154C98.8452 70.1357 97.9663 70.3359 97.1516 70.2426ZM12.7496 70.2234C11.2817 70.0337 10.2646 69.2989 9.79714 68.0902C9.24869 66.6723 9.24199 65.1057 9.77888 63.8227C10.2596 62.6741 11.2045 61.9636 12.5235 61.759C13.3452 61.6316 14.2734 61.8321 14.9154 62.2757C15.3017 62.5427 15.7578 63.0712 15.9437 63.4674C16.0066 63.6015 16.0946 63.8533 16.1392 64.0269C16.2331 64.3925 16.303 65.1652 16.2702 65.4752L16.2482 65.6827L13.242 65.6911L10.2357 65.6995L10.2447 65.9456C10.3072 67.6532 10.969 68.8515 12.1061 69.316C12.7248 69.5688 13.5582 69.5859 14.2428 69.3599C14.3583 69.3218 14.692 69.1697 14.9842 69.022C15.4435 68.79 15.5429 68.7518 15.7168 68.7406C15.9321 68.7267 16.1113 68.7907 16.2305 68.924C16.2873 68.9875 16.2842 68.9933 16.1007 69.1596C15.5672 69.6435 14.8531 69.9931 14.0809 70.1484C13.78 70.2089 12.9842 70.2537 12.7496 70.2234ZM15.5501 65.0514C15.4477 64.5137 15.2669 63.8954 15.1304 63.6159C14.8578 63.0583 14.3925 62.6838 13.7373 62.4949C13.3644 62.3874 12.7122 62.387 12.3459 62.494C11.6055 62.7103 10.966 63.269 10.623 63.9994C10.5363 64.184 10.2192 65.0578 10.2192 65.1121C10.2192 65.1318 11.1581 65.1432 13.4058 65.1508L15.5704 65.1582L15.5501 65.0514ZM21.1196 70.1951C20.8078 70.124 20.4174 69.9158 20.1829 69.6956L19.9805 69.5056L19.9298 69.0298C19.8892 68.6489 19.8761 67.9817 19.8642 65.6834C19.8531 63.5377 19.8398 62.8066 19.8113 62.7883C19.7904 62.7748 19.5543 62.7636 19.2867 62.7633C18.7523 62.7624 18.6145 62.7266 18.5315 62.5659C18.4923 62.4901 18.4938 62.2249 18.5336 62.1847C18.5429 62.1753 18.8548 62.1519 19.2268 62.1328C19.5987 62.1137 19.9048 62.0963 19.9071 62.0941C19.9126 62.0887 19.978 60.46 20.003 59.7068L20.0233 59.0952L20.3363 59.0563C20.5084 59.0349 20.682 59.0095 20.7222 58.9999L20.7952 58.9824V60.5609V62.1394H22.0117H23.2283V62.4511V62.7628H22.0101H20.7918L20.8077 65.724C20.8165 67.3527 20.8338 68.7633 20.8461 68.8588C20.8645 69.0007 20.8941 69.061 21.0093 69.1906C21.2111 69.4176 21.417 69.5013 21.7684 69.4992C22.1063 69.4972 22.3432 69.419 22.6498 69.2081C22.9283 69.0165 23.0503 68.995 23.2352 69.1046C23.312 69.1501 23.4225 69.2543 23.4806 69.3362L23.5863 69.485L23.383 69.6318C23.1011 69.8352 22.704 70.0295 22.3638 70.1306C22.0003 70.2385 21.4382 70.2677 21.1196 70.1951ZM46.216 70.2068C45.8183 70.1682 45.3611 70.0395 45.0113 69.8678C44.1805 69.4601 43.6174 68.7483 43.3291 67.7415C43.1604 67.1525 43.1333 66.9116 43.1323 65.9947C43.1314 65.2389 43.1397 65.1004 43.2039 64.7799C43.4985 63.3117 44.2797 62.3411 45.4982 61.9293C45.8815 61.7998 46.2499 61.7457 46.7486 61.7457C47.4444 61.7457 47.958 61.855 48.5158 62.1217C49.1812 62.4399 49.3503 62.7078 49.1138 63.0689C49.0586 63.1532 48.9919 63.2222 48.9656 63.2222C48.9392 63.2222 48.8567 63.1798 48.7821 63.1281C48.3864 62.8536 47.777 62.5786 47.3543 62.4839C46.972 62.3982 46.4076 62.4291 46.0176 62.5571C45.5363 62.7151 45.2781 62.871 44.9444 63.205C44.6107 63.5392 44.4084 63.8577 44.2514 64.2968C44.089 64.7506 44.056 65.0345 44.0561 65.9744C44.057 67.1933 44.1374 67.5981 44.5084 68.2298C44.7349 68.6156 44.8726 68.783 45.1255 68.9797C45.562 69.3194 46.0328 69.4883 46.6145 69.5136C47.2639 69.5419 47.6357 69.4449 48.2247 69.0934C48.9842 68.6402 49.197 68.575 49.2945 68.7657C49.4023 68.9765 49.3428 69.1968 49.1241 69.3967C48.9824 69.5261 48.4413 69.8428 48.1923 69.942C47.8145 70.0925 46.8937 70.2613 46.5702 70.2394C46.5345 70.2369 46.3751 70.2223 46.216 70.2068ZM54.778 70.2087C54.0854 70.1516 53.4024 69.8934 52.924 69.5079C52.3108 69.0138 51.8372 68.1198 51.6577 67.1176C51.5772 66.6678 51.5785 65.3289 51.66 64.8791C51.8519 63.819 52.2628 63.0521 52.9275 62.513C54.2575 61.4343 56.3461 61.4595 57.6764 62.5704L57.9146 62.7693L57.825 62.8639C57.7757 62.9159 57.6721 62.9829 57.5947 63.0128C57.377 63.0969 57.1833 63.0571 56.7118 62.8316C56.4868 62.724 56.186 62.5944 56.0433 62.5435C55.8029 62.4579 55.7478 62.4511 55.2971 62.4511C54.8783 62.4511 54.777 62.4617 54.5704 62.5273C53.4292 62.8898 52.7916 63.69 52.5184 65.1024C52.4266 65.577 52.4199 66.3664 52.5037 66.8292C52.6255 67.5013 52.9157 68.2052 53.2298 68.5905C53.4589 68.8714 53.7119 69.0692 54.0643 69.2429C54.5197 69.4672 54.6955 69.5048 55.2809 69.5029C55.7424 69.5013 55.805 69.4938 56.0433 69.4111C56.186 69.3615 56.3685 69.2832 56.4488 69.2371C56.5291 69.1911 56.6532 69.1209 56.7245 69.0813C56.7959 69.0416 56.9776 68.9363 57.1284 68.8472C57.3725 68.7029 57.4232 68.6852 57.5933 68.6852C57.8116 68.6852 57.8762 68.7386 57.8762 68.919C57.8762 69.1659 57.7643 69.3096 57.3762 69.5614C56.6039 70.0625 55.709 70.2854 54.778 70.2087ZM111.12 70.2087C109.943 70.0936 109.026 69.4615 108.5 68.4023C108.213 67.8255 108.093 67.3229 108.031 66.4377C107.94 65.1493 108.188 64.0284 108.754 63.173C108.948 62.8803 109.405 62.4435 109.713 62.2578C110.039 62.0605 110.478 61.8902 110.886 61.8028C111.324 61.7091 112.014 61.7111 112.467 61.8075C113.153 61.9532 113.763 62.2448 114.211 62.641L114.341 62.7557L114.276 62.8284C114.149 62.9713 113.976 63.0333 113.744 63.0195C113.565 63.0088 113.461 62.9741 113.102 62.8047C112.491 62.5161 112.305 62.4623 111.851 62.443C111.535 62.4295 111.418 62.4388 111.165 62.498C110.497 62.6542 109.864 63.0816 109.495 63.6266C109.324 63.8779 109.11 64.3657 109.03 64.6844C108.961 64.959 108.956 65.0425 108.957 65.9948C108.959 66.9949 108.959 67.0175 109.045 67.3401C109.214 67.9717 109.591 68.6052 110.007 68.954C110.415 69.2958 110.771 69.4476 111.338 69.522C112.032 69.6129 112.632 69.431 113.544 68.8537L113.882 68.6396L113.982 68.7095C114.037 68.7479 114.173 68.8522 114.285 68.9412L114.489 69.1029L114.289 69.2599C113.619 69.7845 112.754 70.1267 111.892 70.2084C111.686 70.2278 111.489 70.2417 111.454 70.2393C111.418 70.237 111.268 70.2231 111.12 70.2087ZM138.724 70.2071C138.055 70.1287 137.309 69.8158 136.745 69.3763L136.556 69.2296L136.536 69.4004C136.525 69.4943 136.516 69.6847 136.515 69.8235L136.514 70.0758L136.376 70.0927C136.3 70.1021 136.117 70.1164 135.97 70.1245L135.703 70.1392L135.704 65.196C135.704 61.1153 135.736 58.1919 135.78 58.1476C135.805 58.1217 136.59 57.9718 136.608 57.9895C136.619 58.0011 136.633 59.1315 136.638 60.5015C136.643 61.8716 136.654 62.9925 136.662 62.9925C136.67 62.9925 136.899 62.8247 137.172 62.6196C137.953 62.0313 138.159 61.9009 138.38 61.8549C138.962 61.7335 139.815 61.7198 140.284 61.8243C141.249 62.039 142.021 62.8109 142.351 63.8905C142.551 64.5462 142.651 65.6213 142.587 66.4482C142.457 68.1435 141.769 69.3376 140.599 69.8976C139.991 70.1885 139.399 70.2862 138.724 70.2071ZM139.711 69.408C140.363 69.2142 140.816 68.8545 141.165 68.2519C141.624 67.4597 141.731 66.7615 141.639 65.158C141.596 64.4185 141.553 64.2142 141.358 63.8128C141.231 63.5522 141.158 63.452 140.912 63.2025C140.583 62.8669 140.301 62.6832 139.905 62.5446C139.674 62.4635 139.601 62.4538 139.224 62.4538C138.848 62.4538 138.774 62.4636 138.543 62.5443C137.712 62.8343 137.08 63.3024 136.82 63.8204C136.651 64.1565 136.645 64.2303 136.646 65.9278C136.648 67.8221 136.673 68.3216 136.773 68.4854C136.967 68.8032 137.532 69.2157 137.991 69.3744C138.49 69.5471 139.196 69.5609 139.711 69.408ZM161.809 69.744C161.797 69.4865 161.787 67.5964 161.787 65.5436V61.8113H161.928C162.137 61.8113 162.337 61.9306 162.427 62.1088C162.53 62.3139 162.573 62.676 162.546 63.132C162.534 63.3526 162.537 63.5174 162.553 63.5172C162.569 63.5172 162.641 63.425 162.712 63.3126C163.26 62.4495 163.67 62.0723 164.266 61.8801C164.97 61.6536 165.672 61.6711 166.231 61.9292C166.482 62.0449 166.524 62.092 166.524 62.2545C166.524 62.4044 166.435 62.5664 166.297 62.6696C166.219 62.7275 166.195 62.7278 165.713 62.6777C165.15 62.6191 164.597 62.6317 164.323 62.7094C163.695 62.8872 163.068 63.6003 162.761 64.4854C162.609 64.9252 162.587 65.3152 162.611 67.1816C162.631 68.6717 162.597 69.9936 162.539 70.054C162.519 70.0752 162.246 70.1385 161.947 70.1914L161.83 70.212L161.809 69.744ZM0.129897 64.2967V58.448L1.82486 58.4365C2.96305 58.4287 3.64768 58.4375 3.9091 58.4634C4.64851 58.5365 5.20952 58.6969 5.78922 59.0007C6.45943 59.3519 6.95777 60.0323 7.19395 60.9185C7.27107 61.2079 7.27882 61.2924 7.27882 61.844C7.27882 62.3956 7.27103 62.4801 7.19395 62.7695C7.0318 63.378 6.66312 64.0356 6.28616 64.3887C5.8756 64.7732 5.2994 65.0804 4.61139 65.2816L4.20108 65.4016L2.63576 65.4127L1.07044 65.4239V67.7846V70.1453H0.600035H0.129629L0.129897 64.2967ZM3.67409 64.5985C4.43719 64.5308 4.9339 64.3294 5.43405 63.885C5.97883 63.4009 6.24568 62.8857 6.3241 62.1663C6.40512 61.4232 6.15649 60.5999 5.69387 60.0795C5.34079 59.6823 4.87353 59.4404 4.14391 59.277C3.82562 59.2058 3.75566 59.2029 2.44936 59.2077L1.0868 59.2127L1.0785 61.9095L1.07019 64.6063L1.37046 64.5872C1.53562 64.5767 1.92622 64.5804 2.23848 64.5954C3.07431 64.6354 3.25351 64.6358 3.67409 64.5985ZM26.3671 70.1212L26.213 70.1089V65.9437V61.7784L26.3184 61.7793C26.6107 61.7802 26.8404 61.9338 26.9568 62.2073C27.0234 62.364 27.0699 62.7339 27.0968 63.3212L27.1052 63.5017L27.3807 63.0916C27.7515 62.5398 28.0963 62.1947 28.4561 62.0152C28.8244 61.8315 29.0474 61.7764 29.5063 61.7556C29.8581 61.7397 30.5651 61.799 30.8485 61.868L30.926 61.8869L30.909 62.3105C30.8997 62.5435 30.8852 62.741 30.8768 62.7495C30.8684 62.758 30.6149 62.7337 30.3135 62.6955C29.3147 62.5689 28.7777 62.6361 28.3373 62.9429C27.9368 63.2219 27.4275 63.9647 27.2344 64.5517C27.092 64.9847 27.0901 65.0252 27.0895 67.6442L27.0886 70.1459L26.8048 70.14C26.6486 70.1367 26.4518 70.128 26.3671 70.1212ZM60.9825 70.1212L60.8284 70.1089V65.9719V61.8349L60.9987 61.8556C61.0924 61.867 61.3041 61.8764 61.4691 61.8766L61.7692 61.8774V66.0117V70.1459L61.4529 70.14C61.2789 70.1367 61.0672 70.128 60.9825 70.1212ZM70.2689 64.2695V58.3936L70.3582 58.4108C70.4072 58.4203 70.6007 58.4529 70.788 58.4832C70.9754 58.5135 71.1597 58.5502 71.1975 58.5646C71.2418 58.5815 71.357 58.7591 71.5196 59.0609C71.914 59.7929 72.5826 60.972 73.7383 62.9732C74.884 64.9572 75.2908 65.6721 75.7333 66.4786C75.8892 66.7629 76.0215 66.9954 76.0273 66.9954C76.0332 66.9954 76.1504 66.7776 76.2879 66.5114C76.7268 65.6618 77.1341 64.9204 78.1133 63.1893C79.3 61.0913 79.9349 59.9388 80.3385 59.1503L80.6508 58.54L81.0642 58.4844C81.2916 58.4538 81.5104 58.4217 81.5506 58.4132L81.6236 58.3976V64.2714V70.1453H81.437C81.3344 70.1453 81.152 70.1357 81.0316 70.1242L80.8127 70.1032L80.8045 65.1289L80.7963 60.1545L80.4351 60.7616C79.9864 61.5155 79.5708 62.2563 78.769 63.731C78.0389 65.0737 77.4409 66.1386 77.0552 66.7825C76.6836 67.4027 76.1396 68.2426 76.1094 68.2426C76.0464 68.2426 75.5788 67.8186 75.4462 67.6414C75.3624 67.5292 75.3049 67.4293 73.7241 64.6497C72.1962 61.963 71.148 60.171 71.1044 60.171C71.091 60.171 71.08 62.4058 71.08 65.1372V70.1035L70.8806 70.1245C70.7709 70.1361 70.5884 70.1456 70.4751 70.1456H70.2689L70.2689 64.2695ZM103.814 66.0158V61.8768H104.349H104.884V65.9947V70.1125L104.568 70.1134C104.394 70.1134 104.153 70.123 104.033 70.1345L103.814 70.1555V66.0158ZM121.657 64.3761V58.6005L121.74 58.5341C121.831 58.4619 121.96 58.4384 122.346 58.4236L122.598 58.414V63.8368V69.2597L124.974 69.2542C127.125 69.2492 127.94 69.2707 128.003 69.334C128.033 69.3649 128.208 70.0927 128.189 70.1115C128.18 70.1211 126.706 70.134 124.914 70.1403L121.657 70.1518V64.3761ZM145.631 65.9619V61.7784H145.767C145.842 61.7784 145.965 61.809 146.042 61.8464C146.279 61.9625 146.373 62.1796 146.479 62.8486C146.517 63.0901 146.557 63.2877 146.568 63.2877C146.579 63.2877 146.628 63.2175 146.676 63.1318C147.186 62.2265 148.318 61.6413 149.393 61.7269C149.703 61.7516 150.203 61.8598 150.283 61.9197C150.329 61.9537 150.333 62.0118 150.314 62.3639L150.293 62.769L150.111 62.7478C150.011 62.7361 149.707 62.6904 149.434 62.6462C148.848 62.5512 148.798 62.5497 148.521 62.6192C148.082 62.7291 147.744 62.925 147.371 63.2857C147.023 63.6222 146.764 64.0483 146.603 64.551C146.529 64.7806 146.529 64.7813 146.515 67.463L146.5 70.1453H146.066H145.631L145.631 65.9619ZM61.2014 59.8454C60.8071 59.7454 60.5087 59.3578 60.5436 58.9908C60.564 58.7762 60.6747 58.612 60.9083 58.4499C61.1583 58.2763 61.3871 58.2531 61.6284 58.3768C61.9273 58.5299 62.1241 58.8349 62.1253 59.1469C62.1262 59.3574 62.0756 59.4639 61.8975 59.6267C61.6905 59.8158 61.4201 59.9008 61.2014 59.8454ZM104.252 59.8529C103.953 59.7856 103.722 59.602 103.598 59.3339C103.46 59.035 103.524 58.781 103.801 58.5327C103.995 58.3581 104.124 58.3004 104.317 58.3004C104.507 58.3004 104.649 58.3616 104.818 58.5166C105.082 58.757 105.194 59.1586 105.068 59.4054C105.004 59.5302 104.777 59.7382 104.646 59.7923C104.519 59.8443 104.338 59.8723 104.252 59.8529ZM131.117 59.7885C131.002 59.7528 130.906 59.6867 130.771 59.5502C130.537 59.3142 130.498 59.1575 130.609 58.9029C130.693 58.7089 131.038 58.3471 131.186 58.298C131.34 58.2464 131.597 58.3102 131.8 58.4507C132.179 58.7132 132.304 59.1066 132.108 59.4197C131.875 59.7912 131.534 59.9181 131.117 59.7885ZM83.6674 50.1086C82.9982 50.0845 81.9374 50.0233 81.4451 49.9804C78.1948 49.6966 74.8217 48.8506 71.0771 47.38L70.9932 47.347L71.0532 46.8274C71.3431 44.3167 72.0387 41.4391 73.2898 37.5741L73.5147 36.8793L73.8627 37.0277C76.8278 38.2925 79.6066 39.1107 81.9642 39.4133C82.8649 39.5289 83.2153 39.5486 84.3325 39.5463C85.2925 39.5443 85.5607 39.5328 86.0681 39.4713C88.0928 39.2261 89.4316 38.7221 90.2943 37.8805C90.7335 37.4519 91.1155 36.6473 91.2788 35.8069C91.3572 35.4035 91.3585 34.5694 91.2812 34.178C91.1705 33.6165 90.9688 33.116 90.6739 32.6702C90.4584 32.3447 89.8028 31.7052 89.4247 31.4518C88.7008 30.9666 87.5946 30.4988 83.862 29.0991C80.8916 27.9853 79.2996 27.196 77.6818 26.0355C76.5378 25.2147 75.7404 24.4552 74.9622 23.4449C73.6632 21.7587 72.7517 19.6055 72.4902 17.6055C72.1179 14.7587 72.35 11.8477 73.1345 9.52618C73.5124 8.40756 73.9517 7.51897 74.6671 6.42549C76.1352 4.18173 78.3281 2.43277 81.022 1.35734C83.4008 0.407674 86.2964 -0.0546737 89.4907 0.00514636C92.7101 0.0654389 95.9146 0.612163 99.6342 1.73572C100.235 1.91716 102.224 2.57565 102.25 2.6015C102.266 2.61769 102.136 3.58249 102.043 4.14456C101.657 6.4573 100.988 8.75095 99.788 11.864C99.7098 12.067 99.6291 12.2331 99.6088 12.2331C99.533 12.2331 98.4466 11.8537 97.52 11.5036C94.7645 10.4624 94.0415 10.2745 91.8589 10.0318C90.974 9.93343 89.3441 9.90846 88.6958 9.98335C87.7406 10.0937 86.8848 10.3277 86.1762 10.6723C85.741 10.884 85.5802 10.9923 85.2894 11.2698C84.6669 11.8637 84.3041 12.7356 84.2606 13.7424C84.2239 14.5915 84.4202 15.3788 84.8375 16.0562C85.1448 16.5551 85.7814 17.0494 86.9033 17.6603C87.4532 17.9597 87.82 18.1174 90.4964 19.2045C93.4044 20.3858 94.3378 20.7948 95.7027 21.4856C97.896 22.5958 99.5778 23.7677 100.615 24.9083C102.134 26.5793 103.159 28.6488 103.583 30.9048C103.752 31.8018 103.857 33.173 103.855 34.4793C103.853 37.6118 103.215 40.1437 101.843 42.4715C100.994 43.9106 99.8083 45.2357 98.3979 46.3208C96.1035 48.0861 93.1519 49.2627 89.6691 49.8004C87.9805 50.061 85.6609 50.1801 83.6674 50.1086ZM23.6663 49.6807C22.4881 49.6361 20.9951 49.4519 19.6435 49.1844L19.1893 49.0946L19.1933 48.8168C19.1955 48.664 19.2211 48.1477 19.25 47.6695C19.3239 46.4508 19.3576 45.6703 19.4314 43.4696C19.4668 42.4139 19.5038 41.3582 19.5136 41.1236C19.5611 39.9849 19.6329 38.5189 19.6606 38.1213C19.6776 37.8777 19.6918 37.4126 19.692 37.0878C19.6929 36.46 19.7263 35.5285 19.8057 33.9543C19.935 31.3917 19.9567 30.8639 20.0006 29.213C20.0266 28.2385 20.0547 27.4117 20.0633 27.3756C20.0997 27.221 20.1886 25.1493 20.2595 22.7984C20.3142 20.9866 20.3522 20.0553 20.421 18.8446C20.4467 18.3935 20.4761 17.6626 20.4864 17.2205C20.5094 16.2352 20.5459 15.3114 20.6488 13.119C20.7563 10.8272 20.7918 9.90697 20.8288 8.4598C20.8462 7.78307 20.8739 7.07434 20.8906 6.88486C20.938 6.3463 20.9849 5.30001 21.0393 3.5709C21.0923 1.88607 21.1323 1.02062 21.1582 0.994358C21.1813 0.971057 21.7784 0.86349 22.3199 0.785094C23.2421 0.651586 23.986 0.578452 26.0669 0.416754C26.9294 0.349736 27.0685 0.346847 27.7377 0.382074C28.9312 0.444905 30.0293 0.551531 31.9064 0.786883C32.4953 0.860706 32.979 0.923013 32.9815 0.925342C32.9878 0.931397 33.9944 3.5656 34.6256 5.22788C35.3396 7.10842 36.7164 10.76 38.5348 15.5963C39.3559 17.7799 40.2711 20.2088 40.5687 20.9938C40.8663 21.7788 41.3044 22.9452 41.5423 23.5859C42.1445 25.2076 42.4465 25.9113 42.4987 25.8148C42.5487 25.7225 48.8515 9.57288 51.2594 3.36745L52.2104 0.916424L52.3912 0.89525C52.4906 0.883595 53.2069 0.794632 53.9831 0.697536C57.1628 0.29977 57.5882 0.28547 59.7415 0.503947C60.1697 0.547394 60.8924 0.628117 61.3474 0.683328C61.8024 0.738541 62.4301 0.814229 62.7424 0.851526C63.0546 0.888821 63.3122 0.921641 63.3149 0.924456C63.3286 0.939331 63.4276 2.1561 63.4554 2.65218C63.4731 2.96799 63.5098 3.92034 63.5371 4.76852C63.5894 6.39409 63.6308 7.27865 63.6839 7.90201C63.7016 8.10954 63.7891 9.90351 63.8782 11.8886C63.9674 13.8737 64.2225 19.3589 64.4452 24.0781C64.9091 33.9072 65.0005 35.8703 65.1595 39.4174C65.2226 40.825 65.2883 42.1465 65.3055 42.354C65.3542 42.9423 65.398 43.8764 65.4348 45.1102C65.4808 46.6553 65.5269 47.673 65.5825 48.3749C65.6082 48.6998 65.6294 48.9961 65.6295 49.0336C65.6304 49.1075 65.6146 49.1114 64.6402 49.294C61.5367 49.8754 58.1468 49.8355 54.65 49.1764L54.2751 49.1057V48.9208C54.2751 48.8191 54.2314 47.5325 54.1782 46.0617C53.9582 39.9852 53.6919 31.9724 53.4809 25.0824C53.4191 23.0631 53.363 21.4055 53.3563 21.3988C53.344 21.3863 52.4969 23.4384 51.7018 25.4069C51.1186 26.8509 49.9026 29.9058 48.3974 33.7082C46.7108 37.9689 46.1357 39.4044 46.0809 39.4905C46.0158 39.5928 45.8802 39.6563 45.6751 39.6807C45.5786 39.6921 45.2515 39.7368 44.9482 39.78C42.7887 40.0874 40.737 40.1431 39.0924 39.9392C38.4397 39.8582 37.2648 39.6287 37.2045 39.5704C37.1403 39.5082 35.962 36.269 34.0159 30.8044C32.6771 27.045 31.8781 24.8559 30.9946 22.5268L30.6738 21.681L30.6512 21.9198C30.6282 22.1621 30.5747 24.7989 30.5267 28.0482C30.5122 29.0318 30.478 30.2351 30.4506 30.7224C30.3853 31.8871 30.3412 33.4388 30.3008 35.9886C30.2629 38.3803 30.2139 40.3299 30.1698 41.2056C30.1065 42.4597 30.0092 46.2943 30.006 47.6614L30.0026 49.0807L29.9165 49.1002C29.8691 49.111 29.7792 49.132 29.7168 49.1471C27.993 49.5615 25.747 49.7596 23.6663 49.6807ZM148.389 49.6816C146.836 49.6435 145.111 49.4552 143.539 49.1523L143.247 49.096L143.237 26.194C143.231 13.5979 143.237 2.75829 143.249 2.10593L143.27 0.919826L143.437 0.900281C143.529 0.889536 144.472 0.77792 145.534 0.652256C148.632 0.28555 149.706 0.176765 151.048 0.0938352C151.727 0.0518873 156.776 0.00916419 157.161 0.0421086L157.45 0.0668108L157.193 0.301342C156.503 0.933108 156.081 1.49839 155.862 2.08547C155.672 2.59652 155.683 2.16116 155.665 9.65217L155.649 16.5373L155.579 16.5173C155.19 16.4055 154.861 16.3299 154.577 16.2873C154.142 16.2221 153.253 16.2213 152.805 16.2859C150.762 16.5794 149.015 17.7326 147.997 19.4579C147.409 20.4559 147.32 21.6782 147.759 22.741C148.064 23.4804 148.624 24.0366 149.466 24.4371C151.023 25.1774 152.953 25.1133 154.666 24.2643C156.32 23.4452 157.412 22.0753 157.718 20.4361C157.772 20.1467 157.777 19.7938 157.784 15.498C157.792 10.7467 157.815 8.01389 157.85 7.83646C157.866 7.75871 157.945 7.67478 158.199 7.4685C158.664 7.08988 158.918 6.93027 160.019 6.3276C160.554 6.03454 161.416 5.55817 161.933 5.26899C162.451 4.97981 163.494 4.3967 164.253 3.97318C165.011 3.54967 165.77 3.12537 165.94 3.03028C166.109 2.9352 166.489 2.72636 166.783 2.56619C167.312 2.27873 167.321 2.27497 167.546 2.27534C167.73 2.27569 167.837 2.30005 168.113 2.40446C168.301 2.47528 168.466 2.54358 168.481 2.55623C168.531 2.5989 168.564 5.9946 168.544 9.07124L168.524 12.127L168.246 12.0314C168.093 11.9788 167.79 11.8993 167.574 11.8547C165.406 11.4087 163.073 12.1191 161.574 13.6816C160.502 14.7985 160.044 16.0494 160.246 17.3091C160.354 17.9799 160.651 18.5916 161.09 19.042C162.124 20.1055 163.48 20.4869 165.523 20.289C166.32 20.2118 166.925 20.0258 167.724 19.6116C169.075 18.9119 170.079 17.7923 170.498 16.5201C170.733 15.8049 170.718 16.237 170.733 9.86188L170.746 4.12734L170.881 4.23472C171.136 4.43706 172.078 5.39194 172.407 5.78156C174.1 7.78554 175.09 9.89986 175.59 12.5768C175.881 14.1315 175.999 15.4636 176 17.1868C176.002 18.9222 175.858 20.5182 175.573 21.9618C175.142 24.146 174.204 26.2819 172.93 27.9841C172.188 28.9744 171.223 29.9335 170.285 30.6103C169.508 31.1722 168.163 31.9046 167.16 32.3127C165.769 32.8791 164.025 33.3234 162.339 33.5415C161.27 33.6797 160.729 33.7079 159.159 33.7077C157.555 33.7077 156.975 33.6771 155.672 33.5253C155.369 33.4899 155.036 33.4518 154.934 33.4405L154.747 33.4201V41.2645C154.747 48.7071 154.744 49.1097 154.69 49.1255C154.659 49.1346 154.502 49.1664 154.342 49.1961C153.342 49.3808 152.236 49.5291 151.292 49.605C150.796 49.6449 149.244 49.7051 148.94 49.6962C148.824 49.6928 148.576 49.6862 148.389 49.6816ZM4.08767 49.6361C2.79619 49.5498 1.02957 49.3248 0.0892193 49.1268L0 49.108V25.0107C0 11.0833 0.0120943 0.913264 0.0286699 0.913264C0.0444323 0.913264 0.274363 0.884171 0.539624 0.848614C2.01016 0.651493 4.1038 0.452892 5.57999 0.370486C6.4487 0.321993 10.0174 0.64778 11.5736 0.917651L11.7764 0.952811V25.033C11.7764 38.2772 11.7698 49.1133 11.7618 49.1133C11.7538 49.1133 11.5969 49.1422 11.4131 49.1776C10.5384 49.3459 9.5429 49.4773 8.26853 49.5925C7.60361 49.6526 4.77584 49.6821 4.08767 49.6361ZM110.562 25.1117C110.562 5.77488 110.57 0.913243 110.602 0.913159C110.625 0.913094 110.92 0.877091 111.259 0.833134C112.582 0.661662 113.819 0.536109 115.136 0.439888C116.452 0.343741 116.494 0.343918 117.934 0.451368C119.808 0.591218 121.062 0.731453 122.16 0.92412L122.387 0.963977L122.395 19.8052L122.403 38.6464L129.84 38.6473C136.237 38.6482 137.309 38.6546 137.501 38.6958C137.624 38.7222 137.73 38.7489 137.736 38.7552C137.753 38.7722 137.934 39.7626 137.989 40.1396C138.128 41.0897 138.194 41.839 138.24 42.9859C138.312 44.7638 138.192 46.5918 137.873 48.5809C137.78 49.1557 137.765 49.2144 137.703 49.2279C137.399 49.2934 134.382 49.3104 123.057 49.3104H110.562L110.562 25.1117Z" fill="white"/>
</svg>
